<?xml version="1.0" encoding="UTF-8" standalone="no"?>
<!DOCTYPE svg PUBLIC "-//W3C//DTD SVG 1.1//EN"
 "http://www.w3.org/Graphics/SVG/1.1/DTD/svg11.dtd">
<!-- Generated by graphviz version 2.43.0 (0)
 -->
<!-- Title: %3 Pages: 1 -->
<svg width="106pt" height="188pt"
 viewBox="0.00 0.00 106.00 188.00" xmlns="http://www.w3.org/2000/svg" xmlns:xlink="http://www.w3.org/1999/xlink">
<g id="graph0" class="graph" transform="scale(1 1) rotate(0) translate(4 184)">
<title>%3</title>
<polygon fill="white" stroke="transparent" points="-4,4 -4,-184 102,-184 102,4 -4,4"/>
<!-- @DEFAULT -->
<g id="node1" class="node">
<title>@DEFAULT</title>
<polygon fill="none" stroke="black" points="98,-180 0,-180 0,-144 98,-144 98,-180"/>
<text text-anchor="middle" x="49" y="-158.3" font-family="Times,serif" font-size="14.00">@DEFAULT</text>
</g>
<!-- @INIT_MD -->
<g id="node2" class="node">
<title>@INIT_MD</title>
<polygon fill="none" stroke="black" points="95.5,-108 2.5,-108 2.5,-72 95.5,-72 95.5,-108"/>
<text text-anchor="middle" x="49" y="-86.3" font-family="Times,serif" font-size="14.00">@INIT_MD</text>
</g>
<!-- @DEFAULT&#45;&gt;@INIT_MD -->
<g id="edge1" class="edge">
<title>@DEFAULT&#45;&gt;@INIT_MD</title>
<path fill="none" stroke="black" d="M49,-143.7C49,-135.98 49,-126.71 49,-118.11"/>
<polygon fill="black" stroke="black" points="52.5,-118.1 49,-108.1 45.5,-118.1 52.5,-118.1"/>
</g>
<!-- @INIT_MD_ -->
<g id="node3" class="node">
<title>@INIT_MD_</title>
<polygon fill="none" stroke="black" points="94.5,-36 3.5,-36 3.5,0 94.5,0 94.5,-36"/>
<text text-anchor="middle" x="49" y="-14.3" font-family="Times,serif" font-size="14.00">@FORCES</text>
</g>
<!-- @INIT_MD&#45;&gt;@INIT_MD_ -->
<g id="edge2" class="edge">
<title>@INIT_MD&#45;&gt;@INIT_MD_</title>
<path fill="none" stroke="black" d="M49,-71.7C49,-63.98 49,-54.71 49,-46.11"/>
<polygon fill="black" stroke="black" points="52.5,-46.1 49,-36.1 45.5,-46.1 52.5,-46.1"/>
</g>
</g>
</svg>
